@startuml repository

skinparam packageStyle rectangle
hide empty methods
hide empty attributes

<style>
title {
    HorizontalAlignment left
    FontSize 18
    FontStyle normal
}
</style>

package "rekalogika/collections-contracts" {
    interface ReadableRecollection {
        (methods omitted)
    }

    interface Recollection {
        (methods omitted)
    }

    ReadableRecollection <|- Recollection

    interface ReadableRepository {
        +reference($key)
    }

    ReadableRecollection <|-- ReadableRepository

    interface Repository {
    }

    ReadableRepository <|- Repository
    Recollection <|-- Repository
}

@enduml