@startuml decorating-members

skinparam packageStyle rectangle

package "doctrine/collections" {
    interface Collection<T> {
    }
}

package "rekalogika/doctrine-collections-decorator" {
    class CollectionDecorator {
    }
}

Collection <|.. CollectionDecorator

package "app" {
    interface BusinessContractInterface {
    }

    class BusinessContract <<Entity>> implements BusinessContractInterface {
    }

    class BusinessContractDecorator implements BusinessContractInterface {
        - wrapped: BusinessContractInterface
    }

    BusinessContractDecorator o-- BusinessContractInterface

    interface CollectionOfBusinessContracts as "Collection" {
    }

    class BusinessContractCollectionDecorator {
        - wrapped: Collection
    }

    CollectionOfBusinessContracts -o BusinessContractCollectionDecorator::wrapped
    BusinessContractInterface "M" -o CollectionOfBusinessContracts
}

CollectionDecorator <|-- BusinessContractCollectionDecorator
Collection <|-- CollectionOfBusinessContracts : <<bind>>\lBusinessContractInterface

@enduml